HIERARCHY
ROOT hip
{
	OFFSET 0.000000 0.000000 0.000000 
	CHANNELS 6 Xposition Yposition Zposition Xrotation Zrotation Yrotation
	JOINT abdomen
	{
		OFFSET 0.000000 3.402643 0.000000 
		CHANNELS 3 Xrotation Zrotation Yrotation
		JOINT chest
		{
			OFFSET 0.000000 8.438565 -0.680529 
			CHANNELS 3 Xrotation Zrotation Yrotation
			JOINT neck
			{
				OFFSET 0.000000 10.207942 -0.272212 
				CHANNELS 3 Xrotation Zrotation Yrotation
				JOINT head
				{
					OFFSET 0.000000 3.130431 0.000000 
					CHANNELS 3 Xrotation Zrotation Yrotation
					End Site
					{
						OFFSET 0.000000 3.130435 0.000000 
					}
				}
			}
			JOINT lCollar
			{
				OFFSET 3.470700 6.669187 -0.816635 
				CHANNELS 3 Yrotation Zrotation Xrotation
				JOINT lShldr
				{
					OFFSET 3.198488 0.000000 0.000000 
					CHANNELS 3 Zrotation Yrotation Xrotation
					JOINT lForeArm
					{
						OFFSET 10.139888 0.000000 0.000000 
						CHANNELS 3 Yrotation Zrotation Xrotation
						JOINT lHand
						{
							OFFSET 8.370511 0.000000 0.000000 
							CHANNELS 3 Zrotation Yrotation Xrotation
							End Site
							{
								OFFSET 4.083176 0.000000 0.000000 
							}
						}
					}
				}
			}
			JOINT rCollar
			{
				OFFSET -3.470700 6.669187 -0.816635 
				CHANNELS 3 Yrotation Zrotation Xrotation
				JOINT rShldr
				{
					OFFSET -3.198488 0.000000 0.000000 
					CHANNELS 3 Zrotation Yrotation Xrotation
					JOINT rForeArm
					{
						OFFSET -10.139888 0.000000 0.000000 
						CHANNELS 3 Yrotation Zrotation Xrotation
						JOINT rHand
						{
							OFFSET -8.370511 0.000000 0.000000 
							CHANNELS 3 Zrotation Yrotation Xrotation
							End Site
							{
								OFFSET -4.083176 0.000000 0.000000 
							}
						}
					}
				}
			}
		}
	}
	JOINT lThigh
	{
		OFFSET 5.308129 -1.633274 1.361059 
		CHANNELS 3 Xrotation Zrotation Yrotation
		JOINT lShin
		{
			OFFSET -2.041588 -20.007561 0.000000 
			CHANNELS 3 Xrotation Zrotation Yrotation
			JOINT lFoot
			{
				OFFSET 0.000000 -19.190928 -1.224953 
				CHANNELS 3 Xrotation Yrotation Zrotation
				End Site
				{
					OFFSET 0.000000 -2.449906 4.627600 
				}
			}
		}
	}
	JOINT rThigh
	{
		OFFSET -5.308129 -1.633274 1.361059 
		CHANNELS 3 Xrotation Zrotation Yrotation
		JOINT rShin
		{
			OFFSET 2.041588 -20.007561 0.000000 
			CHANNELS 3 Xrotation Zrotation Yrotation
			JOINT rFoot
			{
				OFFSET 0.000000 -19.190928 -1.224953 
				CHANNELS 3 Xrotation Yrotation Zrotation
				End Site
				{
					OFFSET 0.000000 -2.449906 4.627600 
				}
			}
		}
	}
}
MOTION
Frames: 16
Frame Time: 0.033333
0.000000 39.348454 -1.492940 -31.015623 0.029297 -10.468743 52.447910 -9.559458 -7.430046 22.724609 5.292969 8.291917 26.503822 -0.252510 0.028327 -54.375000 1.513672 -1.318101 2.000000 -2.000000 0.000000 -48.544922 -29.765627 -29.155239 -131.451050 -13.685712 -3.765260 -65.414146 -11.767931 -30.602556 -2.000000 2.000000 0.000000 57.900387 34.892578 -35.498043 148.135559 37.480469 -25.087805 83.420113 -67.951263 -39.808475 -6.244882 -4.205992 -0.278958 74.796913 -11.435314 -12.038264 -22.724213 15.779324 6.544425 -59.101025 -5.624993 -11.531597 82.387230 2.773432 6.300727 32.064484 -1.384718 -20.259214 
0.000000 39.741104 -0.472047 -27.851563 0.107422 -9.140622 52.376984 -9.926410 -7.873064 22.714844 4.726563 8.487133 26.474045 -0.652777 0.059255 -54.208984 1.621094 -1.162109 2.000000 -2.000000 0.000000 -48.300777 -29.238281 -29.555548 -131.735870 -13.537329 -4.079134 -65.644424 -11.843507 -30.841433 -2.000000 2.000000 0.000000 56.845703 35.234379 -29.301006 144.220184 31.345142 -22.477430 81.200668 -67.334007 -40.808994 -4.071206 -3.701092 -0.013220 72.821350 -11.054652 -11.483829 -26.751886 13.499901 8.012051 -50.827866 -2.851393 -9.682941 63.993797 2.285233 3.744073 36.945049 1.559669 -16.582787 
0.000000 40.179516 0.667824 -24.306641 0.195313 -7.783165 52.399349 -10.212331 -8.252783 22.685549 4.257813 8.682364 26.424505 -0.986915 0.070298 -54.091801 1.650391 -0.986328 2.000000 -2.000000 0.000000 -48.173828 -28.837889 -29.902342 -132.016937 -13.421758 -4.283544 -65.904099 -11.917467 -31.106966 -2.000000 2.000000 0.000000 55.585938 35.517578 -23.124998 140.135498 25.002087 -19.731340 78.777191 -66.645653 -41.896244 -1.873138 -3.170425 0.037141 69.868752 -10.751084 -10.548030 -30.158297 11.042687 8.860258 -41.115707 -0.731947 -7.628013 41.974339 2.079745 0.961042 44.060814 3.762296 -13.913424 
0.000000 40.621357 1.816607 -20.732422 0.292969 -6.337841 52.645355 -10.278791 -8.381842 22.617189 4.140625 8.858127 26.336370 -1.075277 0.073788 -54.140625 1.464844 -0.751704 2.000000 -2.000000 0.000000 -48.427734 -28.896484 -30.068361 -132.266769 -13.434001 -4.155742 -66.183922 -12.000085 -31.391628 -2.000000 2.000000 0.000000 53.798828 35.537106 -18.041199 136.089752 19.137440 -16.906534 76.202232 -65.899681 -43.051613 0.312477 -2.973135 -0.235244 66.334213 -10.244430 -9.267479 -33.066784 8.872999 9.078342 -32.385284 0.127028 -5.850245 23.290157 2.089863 -1.000389 49.866245 4.661403 -11.972075 
0.000000 41.024292 2.864239 -17.490234 0.351562 -4.853516 53.176380 -9.994344 -8.138111 22.499998 4.521484 8.964844 26.210033 -0.832424 0.046926 -54.404297 1.015625 -0.468749 2.000000 -2.000000 0.000000 -49.218750 -29.599611 -29.975525 -132.442352 -13.626312 -3.582886 -66.493156 -12.081073 -31.697258 -2.000000 2.000000 0.000000 51.406250 35.107422 -14.877195 132.342407 14.409213 -14.057353 73.546463 -65.140305 -44.238590 -3.562352 -2.313810 -0.208351 71.330116 -9.794842 -9.568343 -29.191372 8.764906 8.793091 -31.852638 -0.527226 -4.880589 24.827076 2.294108 -0.761596 45.216045 4.180429 -9.647231 
0.000000 41.345985 3.700652 -14.882812 0.341797 -3.300720 53.788086 -9.513123 -7.609004 22.392578 5.136719 9.053608 26.083761 -0.414306 0.003423 -54.775391 0.449219 -0.205078 2.000000 -2.000000 0.000000 -50.195313 -30.654299 -29.628906 -132.507507 -13.922306 -2.942913 -66.802940 -12.171773 -32.000935 -2.000000 2.000000 0.000000 48.769531 34.296875 -13.793324 129.062790 11.350662 -11.278741 70.884956 -64.372467 -45.447361 -14.352057 -1.474959 0.468657 86.925629 -9.413896 -11.798806 -16.802389 11.116885 8.678414 -35.930286 -1.923560 -4.385018 39.480068 2.675790 1.043092 33.616764 2.778089 -7.365755 
0.000000 41.544117 4.215782 -13.281249 0.234375 -1.689413 54.147877 -9.016931 -6.982233 22.373053 5.654297 9.102524 25.996092 -0.052661 -0.021663 -55.087891 0.029297 -0.009761 2.000000 -2.000000 0.000000 -50.937500 -31.660154 -29.169922 -132.389984 -14.213210 -2.728200 -67.112732 -12.262437 -32.314438 -2.000000 2.000000 0.000000 46.347656 33.369137 -14.130857 126.304146 9.798462 -8.599356 68.264290 -63.628807 -46.628777 -27.977228 -0.352013 1.774459 105.172791 -8.791743 -14.592788 -0.275163 14.630179 7.928132 -38.323715 -3.173518 -3.965001 54.428806 3.124898 3.020226 21.185240 1.015721 -5.914195 
0.000000 41.576336 4.299564 -13.017578 0.000000 0.000000 53.964123 -8.712459 -6.345483 22.548832 5.693360 9.141594 25.996092 0.000000 0.000000 -55.205078 0.000000 0.000000 2.000000 -2.000000 0.000000 -50.976563 -32.236328 -28.671871 -132.036789 -14.399467 -3.416535 -67.412193 -12.343847 -32.618462 -2.000000 2.000000 0.000000 44.531254 32.636719 -15.170514 124.056236 9.475087 -6.111390 65.753647 -62.933231 -47.754837 -42.877289 1.171891 3.755489 120.665741 -7.997478 -16.992598 15.888016 18.406849 5.926671 -37.902863 -3.877151 -3.589750 65.756241 3.499222 4.587249 10.319637 -0.662429 -5.173078 
0.000000 41.416477 3.883931 -14.306641 -0.400390 1.728445 53.035992 -8.735758 -5.865824 22.939455 5.000000 9.161007 26.152105 -0.424852 0.064279 -55.000004 0.468750 -0.224609 2.000000 -2.000000 0.000000 -50.058594 -32.050781 -28.305964 -131.474625 -14.409347 -5.141553 -67.702423 -12.435515 -32.905331 -2.000000 2.000000 0.000000 43.681641 32.412113 -16.430311 122.312149 10.051793 -3.855992 63.413219 -62.308769 -48.816059 -57.429878 3.417996 6.450702 130.415878 -7.088249 -18.445902 26.518333 21.259541 4.392622 -35.503448 -3.525503 -3.093099 72.740433 3.635355 5.478519 2.310317 -2.403433 -4.431361 
0.000000 41.102962 3.068801 -16.806641 -0.878906 3.466647 51.630497 -8.981791 -5.544201 23.437502 3.876954 9.180348 26.375208 -1.150492 0.164179 -54.560547 1.289062 -0.595703 2.000000 -2.000000 0.000000 -48.769531 -31.123045 -28.242188 -130.945892 -14.313025 -6.564418 -67.951782 -12.500055 -33.171467 -2.000000 2.000000 0.000000 43.349606 32.558594 -17.910154 121.052917 11.239408 -1.887794 61.315155 -61.768959 -49.772228 -70.244591 6.276762 9.302823 133.980713 -6.569440 -18.914181 32.533138 22.853764 4.841078 -32.473167 -2.246066 -2.517576 76.637184 3.505782 5.961448 -2.974602 -4.586406 -3.353702 
0.000000 40.690380 1.996093 -20.126951 -1.425781 5.136476 50.180080 -9.315805 -5.351099 23.916018 2.656250 9.209436 26.606422 -1.927326 0.252041 -54.042969 2.177748 -0.986335 2.000000 -2.000000 0.000000 -47.919922 -29.531252 -28.715752 -130.810959 -14.242270 -5.998952 -68.191925 -12.574862 -33.400906 -2.000000 2.000000 0.000000 43.642578 32.851559 -19.779860 120.280495 12.721795 -0.302624 59.524380 -61.356110 -50.593731 -78.905876 9.531458 11.636296 132.470276 -6.608924 -18.650881 34.410160 22.522852 8.698864 -29.224388 -0.536601 -2.017308 78.822319 3.320531 6.228250 -6.325992 -6.894902 -2.284123 
0.000000 40.233311 0.807723 -23.798830 -1.992188 6.679688 49.044441 -9.552965 -5.276579 24.218752 1.738281 9.238579 26.759100 -2.534737 0.284612 -53.574223 2.900391 -1.298828 2.000000 -2.000000 0.000000 -48.320313 -27.373047 -29.941408 -131.422913 -14.312983 -1.747144 -68.372177 -12.633391 -33.609962 -2.000000 2.000000 0.000000 44.296871 33.027344 -22.148438 119.986549 14.207998 0.872188 58.085514 -61.081692 -51.232964 -81.870827 12.059035 13.328497 127.710320 -7.133006 -17.982737 32.920887 20.461014 14.847112 -25.790070 1.064669 -1.712416 79.492958 3.408392 6.448457 -7.882066 -8.956028 -1.308777 
0.000000 39.786346 -0.354390 -27.382813 -2.519531 8.017150 48.529793 -9.598595 -5.293724 24.267578 1.386719 9.287346 26.815868 -2.797467 0.245783 -53.271488 3.242188 -1.425781 2.000000 -2.000000 0.000000 -50.410160 -24.804688 -32.109375 -132.966003 -14.600812 7.155775 -68.512688 -12.684322 -33.763382 -2.000000 2.000000 0.000000 45.156254 32.910160 -25.023989 120.156754 15.389691 1.565909 57.097775 -60.960041 -51.715992 -80.946587 13.085919 13.620058 121.140724 -8.031713 -17.015886 31.467367 17.526039 20.306149 -21.994480 2.098944 -1.590366 79.321838 3.966504 6.843662 -8.618528 -10.487046 -0.607903 
0.000000 39.404064 -1.348328 -30.449215 -2.939453 9.081530 48.491291 -9.477788 -5.392688 24.130859 1.455078 9.345703 26.767063 -2.802420 0.147765 -53.105473 3.291015 -1.445313 2.000000 -2.000000 0.000000 -53.544922 -22.119143 -34.873043 -135.070251 -15.035352 18.727016 -68.592735 -12.709243 -33.859428 -2.000000 2.000000 0.000000 46.152344 32.656254 -28.017580 120.786911 16.045473 1.727562 56.563232 -61.020042 -51.965218 -77.841873 12.559003 12.395146 113.201729 -8.884927 -15.883242 31.072369 14.564171 23.239777 -17.884090 2.782251 -1.531873 79.059845 4.796822 7.372525 -10.186268 -11.545470 -0.402946 
0.000000 39.141041 -2.032174 -32.558594 -3.251953 9.804134 48.652554 -9.289759 -5.560251 23.955080 1.669922 9.433878 26.660391 -2.710819 0.034676 -53.046875 3.242188 -1.425781 2.000000 -2.000000 0.000000 -56.787109 -19.658203 -37.727894 -137.247696 -15.480342 30.234119 -68.603661 -12.728202 -33.915676 -2.000000 2.000000 0.000000 47.265621 32.431641 -30.605467 121.795212 16.336496 1.441688 56.491844 -61.252045 -52.021606 -72.613594 10.965713 10.623522 103.808289 -9.143122 -14.509921 31.081036 12.014079 23.842480 -13.401212 3.337231 -1.412287 78.154648 5.685616 7.898939 -13.176469 -12.241172 -0.805300 
0.000000 39.051872 -2.264009 -33.251953 -3.359375 10.116616 48.764072 -9.097219 -5.766294 23.867189 1.796875 9.570619 26.572643 -2.706117 -0.064802 -53.017578 3.242188 -1.444760 2.000000 -2.000000 0.000000 -59.218750 -17.783205 -40.039063 -139.018311 -15.858895 38.959167 -68.544899 -12.731448 -33.889740 -2.000000 2.000000 0.000000 48.476563 32.460941 -32.216797 123.088203 16.501642 0.800472 56.823723 -61.623402 -51.901749 -65.805389 8.905064 8.521687 91.979843 -8.809428 -12.760488 32.594078 9.502164 22.083887 -8.393014 3.951520 -1.158959 76.076927 6.408310 8.161072 -18.243267 -12.440757 -1.959429 
